<svg id="visual" viewBox="0 0 900 600" width="900" height="600" xmlns="http://www.w3.org/2000/svg" xmlns:xlink="http://www.w3.org/1999/xlink" version="1.1"><path d="M0 103L13.7 96C27.3 89 54.7 75 82 67C109.3 59 136.7 57 163.8 59C191 61 218 67 245.2 74C272.3 81 299.7 89 327 84C354.3 79 381.7 61 409 57C436.3 53 463.7 63 491 67C518.3 71 545.7 69 573 71C600.3 73 627.7 79 654.8 76C682 73 709 61 736.2 53C763.3 45 790.7 41 818 39C845.3 37 872.7 37 886.3 37L900 37L900 0L886.3 0C872.7 0 845.3 0 818 0C790.7 0 763.3 0 736.2 0C709 0 682 0 654.8 0C627.7 0 600.3 0 573 0C545.7 0 518.3 0 491 0C463.7 0 436.3 0 409 0C381.7 0 354.3 0 327 0C299.7 0 272.3 0 245.2 0C218 0 191 0 163.8 0C136.7 0 109.3 0 82 0C54.7 0 27.3 0 13.7 0L0 0Z" fill="#083578"></path><path d="M0 169L13.7 168C27.3 167 54.7 165 82 165C109.3 165 136.7 167 163.8 171C191 175 218 181 245.2 183C272.3 185 299.7 183 327 170C354.3 157 381.7 133 409 134C436.3 135 463.7 161 491 174C518.3 187 545.7 187 573 181C600.3 175 627.7 163 654.8 154C682 145 709 139 736.2 133C763.3 127 790.7 121 818 114C845.3 107 872.7 99 886.3 95L900 91L900 35L886.3 35C872.7 35 845.3 35 818 37C790.7 39 763.3 43 736.2 51C709 59 682 71 654.8 74C627.7 77 600.3 71 573 69C545.7 67 518.3 69 491 65C463.7 61 436.3 51 409 55C381.7 59 354.3 77 327 82C299.7 87 272.3 79 245.2 72C218 65 191 59 163.8 57C136.7 55 109.3 57 82 65C54.7 73 27.3 87 13.7 94L0 101Z" fill="#2b51aa"></path><path d="M0 271L13.7 275C27.3 279 54.7 287 82 312C109.3 337 136.7 379 163.8 396C191 413 218 405 245.2 394C272.3 383 299.7 369 327 355C354.3 341 381.7 327 409 312C436.3 297 463.7 281 491 289C518.3 297 545.7 329 573 345C600.3 361 627.7 361 654.8 352C682 343 709 325 736.2 310C763.3 295 790.7 283 818 285C845.3 287 872.7 303 886.3 311L900 319L900 89L886.3 93C872.7 97 845.3 105 818 112C790.7 119 763.3 125 736.2 131C709 137 682 143 654.8 152C627.7 161 600.3 173 573 179C545.7 185 518.3 185 491 172C463.7 159 436.3 133 409 132C381.7 131 354.3 155 327 168C299.7 181 272.3 183 245.2 181C218 179 191 173 163.8 169C136.7 165 109.3 163 82 163C54.7 163 27.3 165 13.7 166L0 167Z" fill="#5170bf"></path><path d="M0 463L13.7 477C27.3 491 54.7 519 82 530C109.3 541 136.7 535 163.8 525C191 515 218 501 245.2 505C272.3 509 299.7 531 327 536C354.3 541 381.7 529 409 522C436.3 515 463.7 513 491 507C518.3 501 545.7 491 573 480C600.3 469 627.7 457 654.8 462C682 467 709 489 736.2 488C763.3 487 790.7 463 818 458C845.3 453 872.7 467 886.3 474L900 481L900 317L886.3 309C872.7 301 845.3 285 818 283C790.7 281 763.3 293 736.2 308C709 323 682 341 654.8 350C627.7 359 600.3 359 573 343C545.7 327 518.3 295 491 287C463.7 279 436.3 295 409 310C381.7 325 354.3 339 327 353C299.7 367 272.3 381 245.2 392C218 403 191 411 163.8 394C136.7 377 109.3 335 82 310C54.7 285 27.3 277 13.7 273L0 269Z" fill="#2b51aa"></path><path d="M0 601L13.7 601C27.3 601 54.7 601 82 601C109.3 601 136.7 601 163.8 601C191 601 218 601 245.2 601C272.3 601 299.7 601 327 601C354.3 601 381.7 601 409 601C436.3 601 463.7 601 491 601C518.3 601 545.7 601 573 601C600.3 601 627.7 601 654.8 601C682 601 709 601 736.2 601C763.3 601 790.7 601 818 601C845.3 601 872.7 601 886.3 601L900 601L900 479L886.3 472C872.7 465 845.3 451 818 456C790.7 461 763.3 485 736.2 486C709 487 682 465 654.8 460C627.7 455 600.3 467 573 478C545.7 489 518.3 499 491 505C463.7 511 436.3 513 409 520C381.7 527 354.3 539 327 534C299.7 529 272.3 507 245.2 503C218 499 191 513 163.8 523C136.7 533 109.3 539 82 528C54.7 517 27.3 489 13.7 475L0 461Z" fill="#083578"></path></svg>