<svg id="visual" viewBox="0 0 900 600" width="900" height="600" xmlns="http://www.w3.org/2000/svg" xmlns:xlink="http://www.w3.org/1999/xlink" version="1.1"><path d="M0 61L13.7 75C27.3 89 54.7 117 82 130C109.3 143 136.7 141 163.8 127C191 113 218 87 245.2 89C272.3 91 299.7 121 327 124C354.3 127 381.7 103 409 93C436.3 83 463.7 87 491 85C518.3 83 545.7 75 573 72C600.3 69 627.7 71 654.8 77C682 83 709 93 736.2 96C763.3 99 790.7 95 818 99C845.3 103 872.7 115 886.3 121L900 127L900 0L886.3 0C872.7 0 845.3 0 818 0C790.7 0 763.3 0 736.2 0C709 0 682 0 654.8 0C627.7 0 600.3 0 573 0C545.7 0 518.3 0 491 0C463.7 0 436.3 0 409 0C381.7 0 354.3 0 327 0C299.7 0 272.3 0 245.2 0C218 0 191 0 163.8 0C136.7 0 109.3 0 82 0C54.7 0 27.3 0 13.7 0L0 0Z" fill="#3c588f"></path><path d="M0 367L13.7 358C27.3 349 54.7 331 82 323C109.3 315 136.7 317 163.8 299C191 281 218 243 245.2 234C272.3 225 299.7 245 327 241C354.3 237 381.7 209 409 213C436.3 217 463.7 253 491 271C518.3 289 545.7 289 573 292C600.3 295 627.7 301 654.8 306C682 311 709 315 736.2 324C763.3 333 790.7 347 818 331C845.3 315 872.7 269 886.3 246L900 223L900 125L886.3 119C872.7 113 845.3 101 818 97C790.7 93 763.3 97 736.2 94C709 91 682 81 654.8 75C627.7 69 600.3 67 573 70C545.7 73 518.3 81 491 83C463.7 85 436.3 81 409 91C381.7 101 354.3 125 327 122C299.7 119 272.3 89 245.2 87C218 85 191 111 163.8 125C136.7 139 109.3 141 82 128C54.7 115 27.3 87 13.7 73L0 59Z" fill="#6282c7"></path><path d="M0 445L13.7 430C27.3 415 54.7 385 82 380C109.3 375 136.7 395 163.8 382C191 369 218 323 245.2 306C272.3 289 299.7 301 327 298C354.3 295 381.7 277 409 283C436.3 289 463.7 319 491 338C518.3 357 545.7 365 573 370C600.3 375 627.7 377 654.8 375C682 373 709 367 736.2 374C763.3 381 790.7 401 818 394C845.3 387 872.7 353 886.3 336L900 319L900 221L886.3 244C872.7 267 845.3 313 818 329C790.7 345 763.3 331 736.2 322C709 313 682 309 654.8 304C627.7 299 600.3 293 573 290C545.7 287 518.3 287 491 269C463.7 251 436.3 215 409 211C381.7 207 354.3 235 327 239C299.7 243 272.3 223 245.2 232C218 241 191 279 163.8 297C136.7 315 109.3 313 82 321C54.7 329 27.3 347 13.7 356L0 365Z" fill="#8ba0d5"></path><path d="M0 541L13.7 541C27.3 541 54.7 541 82 536C109.3 531 136.7 521 163.8 511C191 501 218 491 245.2 484C272.3 477 299.7 473 327 475C354.3 477 381.7 485 409 499C436.3 513 463.7 533 491 531C518.3 529 545.7 505 573 506C600.3 507 627.7 533 654.8 540C682 547 709 535 736.2 527C763.3 519 790.7 515 818 520C845.3 525 872.7 539 886.3 546L900 553L900 317L886.3 334C872.7 351 845.3 385 818 392C790.7 399 763.3 379 736.2 372C709 365 682 371 654.8 373C627.7 375 600.3 373 573 368C545.7 363 518.3 355 491 336C463.7 317 436.3 287 409 281C381.7 275 354.3 293 327 296C299.7 299 272.3 287 245.2 304C218 321 191 367 163.8 380C136.7 393 109.3 373 82 378C54.7 383 27.3 413 13.7 428L0 443Z" fill="#6282c7"></path><path d="M0 601L13.7 601C27.3 601 54.7 601 82 601C109.3 601 136.7 601 163.8 601C191 601 218 601 245.2 601C272.3 601 299.7 601 327 601C354.3 601 381.7 601 409 601C436.3 601 463.7 601 491 601C518.3 601 545.7 601 573 601C600.3 601 627.7 601 654.8 601C682 601 709 601 736.2 601C763.3 601 790.7 601 818 601C845.3 601 872.7 601 886.3 601L900 601L900 551L886.3 544C872.7 537 845.3 523 818 518C790.7 513 763.3 517 736.2 525C709 533 682 545 654.8 538C627.7 531 600.3 505 573 504C545.7 503 518.3 527 491 529C463.7 531 436.3 511 409 497C381.7 483 354.3 475 327 473C299.7 471 272.3 475 245.2 482C218 489 191 499 163.8 509C136.7 519 109.3 529 82 534C54.7 539 27.3 539 13.7 539L0 539Z" fill="#3c588f"></path></svg>